<?xml version="1.0" encoding="UTF-8" standalone="no"?>
<!DOCTYPE svg PUBLIC "-//W3C//DTD SVG 1.1//EN" "http://www.w3.org/Graphics/SVG/1.1/DTD/svg11.dtd">
<svg width="36" height="40" viewBox="0 0 36 40" version="1.1" xmlns="http://www.w3.org/2000/svg" xmlns:xlink="http://www.w3.org/1999/xlink" xml:space="preserve" xmlns:serif="http://www.serif.com/" style="fill-rule:evenodd;clip-rule:evenodd;stroke-linecap:round;stroke-linejoin:round;stroke-miterlimit:1.5;">
    <g id="Layer2">
    </g>
    <g id="Layer1" transform="matrix(0.156601,0,0,0.156601,-11.1263,-9.67154)">
        <path d="M154.708,248.737C154.708,248.737 176.607,200.036 214.195,248.737" style="fill:none;stroke:black;stroke-width:6.39px;"/>
    </g>
    <g id="Layer21" serif:id="Layer2" transform="matrix(0.156601,0,0,0.156601,-11.1263,-9.67154)">
        <path d="M107.313,186.308C107.313,186.308 120.061,207.554 147.19,179.771" style="fill:none;stroke:black;stroke-width:6.39px;"/>
    </g>
    <g id="Layer3" transform="matrix(0.156601,0,0,0.156601,-11.1263,-9.67154)">
        <path d="M222.367,180.425C222.367,180.425 248.515,207.227 261.263,185.654" style="fill:none;stroke:black;stroke-width:6.39px;"/>
    </g>
    <g id="Layer4" transform="matrix(0.156601,0,0,0.156601,-11.1263,-9.67154)">
        <path d="M173.338,202.978C173.338,202.978 183.798,195.46 194.911,201.997C206.024,208.534 175.299,219.974 173.338,202.978Z" style="fill:none;stroke:black;stroke-width:6.39px;"/>
    </g>
</svg>
