<?xml version="1.0" encoding="UTF-8" standalone="no"?>
<!DOCTYPE svg PUBLIC "-//W3C//DTD SVG 1.1//EN" "http://www.w3.org/Graphics/SVG/1.1/DTD/svg11.dtd">
<svg width="100%" height="100%" viewBox="0 0 36 40" version="1.1" xmlns="http://www.w3.org/2000/svg" xmlns:xlink="http://www.w3.org/1999/xlink" xml:space="preserve" xmlns:serif="http://www.serif.com/" style="fill-rule:evenodd;clip-rule:evenodd;stroke-linejoin:round;stroke-miterlimit:2;">
    <g id="patch_2">
        <path d="M34.46,26.586C32.403,26.382 29.13,25.692 27.097,25.306C25.999,25.098 24.815,25.001 23.808,24.48C22.366,23.734 21.411,22.148 21.815,20.514C22.021,19.676 22.516,18.886 23.077,18.241C24.109,17.054 25.788,16.507 27.246,16.071C28.199,15.786 29.142,15.5 30.135,15.389C30.931,15.3 32.221,15.105 32.835,15.789C34.547,17.697 34.544,20.525 34.753,22.919C34.834,23.848 34.859,24.765 34.713,25.691C34.675,25.93 34.629,26.164 34.554,26.394C34.548,26.413 34.491,26.612 34.46,26.586Z" style="fill:rgb(255,0,0);"/>
        <path d="M0.632,24.68C0.621,24.679 0.607,24.274 0.605,24.248C0.573,23.796 0.537,23.343 0.518,22.89C0.429,20.814 0.997,19.064 1.756,17.163C2.248,15.929 3.2,14.897 4.072,13.921C4.9,12.996 5.744,12.09 6.724,11.32C7.8,10.475 9.001,9.791 10.155,9.06C11.012,8.517 11.842,8.102 12.775,7.698C13.18,7.523 13.612,7.267 14.049,7.178C14.426,7.102 14.636,7.404 14.835,7.684C15.325,8.373 15.803,9.103 16.208,9.845C16.719,10.782 17.168,11.798 17.288,12.869C17.441,14.244 16.971,15.661 16.607,16.965C16.293,18.087 16.012,19.198 15.347,20.178C14.579,21.31 13.549,22.566 12.402,23.332C10.642,24.508 8.293,24.796 6.224,24.768C5.062,24.752 3.718,24.76 2.556,24.761C1.797,24.762 1.267,24.702 0.632,24.68Z" style="fill:rgb(255,0,0);"/>
    </g>
</svg>
