<?xml version="1.0" encoding="UTF-8" standalone="no"?>
<!DOCTYPE svg PUBLIC "-//W3C//DTD SVG 1.1//EN" "http://www.w3.org/Graphics/SVG/1.1/DTD/svg11.dtd">
<svg width="100%" height="100%" viewBox="0 0 36 40" version="1.1" xmlns="http://www.w3.org/2000/svg" xmlns:xlink="http://www.w3.org/1999/xlink" xml:space="preserve" xmlns:serif="http://www.serif.com/" style="fill-rule:evenodd;clip-rule:evenodd;stroke-linejoin:round;stroke-miterlimit:2;">
    <g id="patch3">
        <path d="M13.679,7.605C13.816,7.479 14.032,7.261 14.206,7.185C14.649,6.992 15.254,7.059 15.729,7.041C16.273,7.021 16.813,6.947 17.358,6.96C17.915,6.974 18.474,6.941 19.031,6.982C19.548,7.02 20.068,6.973 20.583,6.995C21.1,7.017 21.812,7.178 22.213,7.564C22.45,7.792 22.569,8.261 22.679,8.559C22.952,9.298 23.237,10.074 23.432,10.837C23.609,11.529 23.764,12.24 23.688,12.946C23.654,13.266 23.449,13.632 23.267,13.907C22.937,14.406 22.278,14.345 21.835,14.016C21.504,13.77 21.25,13.327 21.079,12.963C20.521,11.769 20.459,10.43 20.526,9.137C20.549,8.694 20.491,8.271 20.457,7.831C20.447,7.703 20.467,7.459 20.346,7.372C20.142,7.226 19.797,7.319 19.573,7.364C19.503,7.378 19.55,7.721 19.553,7.768C19.579,8.217 19.595,8.667 19.602,9.117C19.613,9.884 19.593,10.651 19.581,11.419C19.569,12.131 19.72,13.404 19.404,14.059C19.216,14.447 18.775,14.504 18.271,14.523C17.542,14.551 17.41,13.547 17.286,13.027C17.068,12.107 17.009,11.096 17.032,10.153C17.046,9.602 16.973,9.015 16.952,8.464C16.941,8.146 17.057,7.612 16.68,7.507C16.517,7.462 16.33,7.502 16.163,7.505C16.035,7.507 15.851,7.476 15.73,7.529C15.635,7.57 15.646,7.828 15.638,7.911C15.599,8.322 15.557,8.73 15.511,9.14C15.431,9.848 15.411,10.579 15.272,11.278C15.194,11.674 15.035,12.048 14.924,12.434C14.822,12.791 14.751,13.145 14.592,13.483C14.411,13.867 14.105,14.622 13.558,14.554C12.973,14.482 12.762,14.028 12.712,13.558C12.659,13.056 12.741,12.309 12.791,11.805C12.862,11.092 13.06,10.401 13.168,9.694C13.254,9.132 13.372,8.572 13.449,8.01C13.465,7.892 13.477,7.748 13.567,7.661C13.579,7.649 13.66,7.582 13.679,7.605Z" style="fill:rgb(255,0,0);"/>
    </g>
</svg>
