<?xml version="1.0" encoding="UTF-8" standalone="no"?>
<!DOCTYPE svg PUBLIC "-//W3C//DTD SVG 1.1//EN" "http://www.w3.org/Graphics/SVG/1.1/DTD/svg11.dtd">
<svg width="36" height="40" viewBox="0 0 36 40" version="1.1" xmlns="http://www.w3.org/2000/svg" xmlns:xlink="http://www.w3.org/1999/xlink" xml:space="preserve" xmlns:serif="http://www.serif.com/" style="fill-rule:evenodd;clip-rule:evenodd;stroke-linejoin:round;stroke-miterlimit:2;">
    <path d="M0.738,21.282C0.624,21.069 0.598,20.685 0.644,20.506C0.8,19.897 1.13,19.463 1.303,18.859C2.046,16.263 3.343,13.704 5.631,12.079C7.907,10.462 10.294,8.636 12.991,7.75C16.802,6.497 21.284,7.134 24.823,8.815C26.368,9.548 27.254,10.51 28.569,11.517C28.953,11.81 29.499,12.305 29.884,12.59C30.301,12.898 30.851,13.458 31.232,13.812C31.846,14.382 32.341,14.791 32.847,15.469C33.523,16.376 33.926,17.773 34.038,18.9C34.349,22.022 31.621,24.565 28.643,24.952C27.307,25.125 25.684,24.661 24.537,23.976C22.723,22.893 22.557,20.47 21.324,18.914C20.575,17.968 18.421,17.79 17.265,17.89C15.12,18.075 14.68,20.46 13.281,21.8C11.343,23.656 9.583,24.967 6.87,25.284C6.072,25.377 5.035,25.461 4.278,25.114C3.031,24.542 1.364,22.446 0.738,21.282Z" style="fill:rgb(255,0,0);"/>
</svg>
