<?xml version="1.0" encoding="UTF-8" standalone="no"?>
<!DOCTYPE svg PUBLIC "-//W3C//DTD SVG 1.1//EN" "http://www.w3.org/Graphics/SVG/1.1/DTD/svg11.dtd">
<svg width="36" height="40" viewBox="0 0 36 40" version="1.1" xmlns="http://www.w3.org/2000/svg" xmlns:xlink="http://www.w3.org/1999/xlink" xml:space="preserve" xmlns:serif="http://www.serif.com/" style="fill-rule:evenodd;clip-rule:evenodd;stroke-linecap:round;stroke-linejoin:round;stroke-miterlimit:1.5;">
    <g id="Layer1" transform="matrix(0.146096,0,0,0.146096,-8.5102,-4.61231)">
        <path d="M142.947,251.784C142.947,251.784 184.226,244.98 216.911,252.497" style="fill:none;stroke:black;stroke-width:6.84px;"/>
    </g>
    <g transform="matrix(0.146096,0,0,0.146096,-8.93997,-6.18814)">
        <g id="Layer5">
            <path d="M173.338,202.978C173.338,202.978 183.798,195.46 194.911,201.997C206.024,208.534 175.299,219.974 173.338,202.978Z" style="fill:none;stroke:black;stroke-width:6.84px;"/>
        </g>
    </g>
    <g id="Layer6" transform="matrix(0.146096,0,0,0.146096,-8.5102,-4.61231)">
        <path d="M115.485,97.431C115.485,97.431 114.504,121.945 141.306,116.716" style="fill:none;stroke:black;stroke-width:6.84px;"/>
    </g>
    <g id="Layer7" transform="matrix(0.146096,0,0,0.146096,-8.5102,-4.61231)">
        <path d="M104.045,137.635C104.045,137.635 115.812,117.369 142.614,131.424" style="fill:none;stroke:black;stroke-width:6.84px;"/>
    </g>
    <g id="Layer8" transform="matrix(0.146096,0,0,0.146096,-8.5102,-4.61231)">
        <path d="M104.372,100.7C104.372,100.7 116.792,119.657 96.854,127.829" style="fill:none;stroke:black;stroke-width:6.84px;"/>
    </g>
    <g id="Layer2" transform="matrix(0.146096,0,0,0.146096,-8.5102,-4.61231)">
        <path d="M142.941,251.679C142.941,251.679 176.607,166.015 217.137,252.333" style="fill:none;stroke:black;stroke-width:6.84px;"/>
    </g>
    <g id="Layer3" transform="matrix(0.146096,0,0,0.146096,-8.5102,-4.61231)">
        <path d="M100.776,160.841C100.776,160.841 110.909,143.518 146.209,184.048" style="fill:none;stroke:black;stroke-width:6.84px;"/>
    </g>
    <g id="Layer4" transform="matrix(0.146096,0,0,0.146096,-8.5102,-4.61231)">
        <path d="M260.282,158.88C260.282,158.88 250.476,139.923 218.771,185.029" style="fill:none;stroke:black;stroke-width:6.84px;"/>
    </g>
</svg>
