<?xml version="1.0" encoding="UTF-8" standalone="no"?>
<!DOCTYPE svg PUBLIC "-//W3C//DTD SVG 1.1//EN" "http://www.w3.org/Graphics/SVG/1.1/DTD/svg11.dtd">
<svg width="36" height="40" viewBox="0 0 36 40" version="1.1" xmlns="http://www.w3.org/2000/svg" xmlns:xlink="http://www.w3.org/1999/xlink" xml:space="preserve" xmlns:serif="http://www.serif.com/" style="fill-rule:evenodd;clip-rule:evenodd;stroke-linecap:round;stroke-linejoin:round;stroke-miterlimit:1.5;">
    <g id="Layer1" transform="matrix(0.155673,0,0,0.155673,-10.7252,-4.96654)">
        <path d="M140.326,215.071C140.326,215.071 149.263,232.901 181.502,213.801C190.163,208.669 216.556,236.903 228.577,217.032" style="fill:none;stroke:black;stroke-width:6.42px;"/>
        <g transform="matrix(1,0,0,1,-1.9376,-15.9741)">
            <path d="M173.338,202.978C173.338,202.978 183.798,195.46 194.911,201.997C206.024,208.534 175.299,219.974 173.338,202.978Z" style="fill:none;stroke:black;stroke-width:6.42px;"/>
        </g>
        <path d="M128.196,147.611C128.196,147.611 107.779,148.615 111.628,169.366C115.477,190.118 131.543,187.106 135.392,187.106C139.241,187.106 144.094,173.55 141.249,162.84C138.404,152.129 131.71,149.284 128.196,147.611Z" style="fill:none;stroke:black;stroke-width:6.42px;"/>
    </g>
    <g id="Layer2" transform="matrix(0.155673,0,0,0.155673,-10.7252,-4.96654)">
        <path d="M240.99,147.778C240.99,147.778 226.932,147.276 224.757,161.334C222.581,175.391 228.773,185.599 236.136,189.281C243.5,192.963 273.288,162.505 240.99,147.778Z" style="fill:none;stroke:black;stroke-width:6.42px;"/>
    </g>
    <g id="Layer3" transform="matrix(0.155673,0,0,0.155673,-10.7252,-4.96654)">
        <path d="M123.51,155.644C123.51,155.644 115.812,157.652 115.812,165.517C115.812,173.383 118.824,172.379 121.836,173.885C124.849,175.391 131.375,160.832 123.51,155.644Z" style="fill:none;stroke:black;stroke-width:6.42px;"/>
    </g>
    <g id="Layer4" transform="matrix(0.155673,0,0,0.155673,-10.7252,-4.96654)">
        <path d="M235.802,154.472C235.802,154.472 246.01,164.346 233.961,173.048C221.912,181.75 229.945,146.774 235.802,154.472Z" style="fill:none;stroke:black;stroke-width:6.42px;"/>
    </g>
</svg>
