<?xml version="1.0" encoding="UTF-8" standalone="no"?>
<!DOCTYPE svg PUBLIC "-//W3C//DTD SVG 1.1//EN" "http://www.w3.org/Graphics/SVG/1.1/DTD/svg11.dtd">
<svg width="100%" height="100%" viewBox="0 0 2481 3508" version="1.1" xmlns="http://www.w3.org/2000/svg" xmlns:xlink="http://www.w3.org/1999/xlink" xml:space="preserve" xmlns:serif="http://www.serif.com/" style="fill-rule:evenodd;clip-rule:evenodd;stroke-linecap:round;stroke-linejoin:round;stroke-miterlimit:1.5;">
    <g transform="matrix(1,0,0,1,45.1898,564.875)">
        <path d="M1957.55,627.011C1892.2,457.117 714.219,213.08 658.336,836.015C620.345,1259.51 353.304,1525.16 827.799,1355.7C1302.29,1186.24 1466.11,830.366 1782.44,948.99C2098.77,1067.61 2019.69,1208.83 2008.39,1429.13C1997.09,1649.43 1872.82,2163.47 1584.73,2056.14C1296.64,1948.82 229.031,1948.82 494.522,1638.14C760.014,1327.46 1234.51,1745.46 1466.11,1807.6C1697.71,1869.74 1878.47,1666.38 1810.68,1530.81C1742.9,1395.24 1788.09,1174.94 1477.4,1225.78C1166.72,1276.62 551.01,1621.19 415.44,1491.27C279.87,1361.35 319.411,1376.71 522.766,519.685C726.121,-337.337 1556.49,385.703 1838.92,368.757C2121.36,351.811 2138.31,619.774 1957.55,627.011" style="fill:none;stroke:black;stroke-width:1px;"/>
    </g>
</svg>
